<svg version="1.1" xmlns="http://www.w3.org/2000/svg" xmlns:xlink="http://www.w3.org/1999/xlink" width="278.866" height="357.05546" viewBox="0,0,278.866,357.05546"><g transform="translate(-103.61258,-183.34674)"><g data-paper-data="{&quot;isPaintingLayer&quot;:true}" fill-rule="nonzero" stroke-linejoin="miter" stroke-miterlimit="10" stroke-dasharray="" stroke-dashoffset="0" style="mix-blend-mode: normal"><g><path d="M277.21512,194.2654c9.46709,9.19216 10.13408,24.57816 10.93001,37.5538c0.71741,11.7312 1.78224,26.23147 -6.16549,34.75112c-9.75857,9.1869 -25.95705,10.23492 -38.95526,10.36937c-13.28393,0.14574 -28.95011,-1.03122 -38.67482,-10.36937c-7.9535,-8.3403 -7.12948,-22.99734 -6.44568,-34.75112c0.6838,-11.894 1.03122,-26.44469 9.24835,-35.31176c9.02962,-8.3852 23.78775,-9.21474 35.87214,-9.80899c11.65294,-0.58296 26.15872,-0.73974 34.19074,7.56695z" fill="#ffff00" stroke="#000000" stroke-width="6.70344" stroke-linecap="round"/><path d="M312.27704,537.05048h-68.10128v-122.75057h68.10128z" fill="#003fff" stroke="#000000" stroke-width="6.70344" stroke-linecap="butt"/><path d="M243.54589,537.05048h-68.10128v-122.75057h68.10128z" fill="#003fff" stroke="#000000" stroke-width="6.70344" stroke-linecap="butt"/><path d="M312.21909,412.9461h-136.7632v-136.7632h136.7632z" fill="#666666" stroke="#000000" stroke-width="6.70344" stroke-linecap="butt"/><path d="M175.06558,398.83565h-68.10128v-122.75057h68.10128z" fill="#666666" stroke="#000000" stroke-width="6.70344" stroke-linecap="butt"/><path d="M379.12686,398.83565h-68.10128v-122.75057h68.10128z" fill="#666666" stroke="#000000" stroke-width="6.70344" stroke-linecap="butt"/><path d="M253.84528,206.73484c1.18825,1.19402 1.92798,2.84181 1.92798,4.65792c0,1.81586 -0.73974,3.4639 -1.92798,4.65766c-1.19402,1.18825 -2.84181,1.92823 -4.65792,1.92823c-1.81611,0 -3.4639,-0.73999 -4.65766,-1.92823c-1.1885,-1.19376 -1.92823,-2.84181 -1.92823,-4.65766c0,-1.81611 0.73974,-3.4639 1.92823,-4.65792c1.19376,-1.18825 2.84156,-1.92823 4.65766,-1.92823c1.81611,0 3.4639,0.73999 4.65792,1.92823z" fill="#000000" stroke="none" stroke-width="2.23448" stroke-linecap="butt"/><path d="M229.63887,207.48737c1.18825,1.19402 1.92798,2.84181 1.92798,4.65792c0,1.81586 -0.73974,3.4639 -1.92798,4.65766c-1.19402,1.18825 -2.84181,1.92823 -4.65792,1.92823c-1.81611,0 -3.4639,-0.73999 -4.65766,-1.92823c-1.1885,-1.19376 -1.92823,-2.84181 -1.92823,-4.65766c0,-1.81611 0.73974,-3.4639 1.92823,-4.65792c1.19376,-1.18825 2.84156,-1.92823 4.65766,-1.92823c1.81611,0 3.4639,0.73999 4.65792,1.92823z" fill="#000000" stroke="none" stroke-width="2.23448" stroke-linecap="butt"/><path d="M254.65651,252.86925c0,0 -7.14653,4.75875 -11.63062,5.04447c-4.28767,0.25787 -13.03158,-4.20364 -13.03158,-4.20364" fill="none" stroke="#000000" stroke-width="4.46896" stroke-linecap="round"/></g><text transform="translate(201.71171,319.95268) scale(0.81271,0.81271)" font-size="40" xml:space="preserve" fill="#b4b84a" fill-rule="nonzero" stroke="none" stroke-width="1" stroke-linecap="butt" stroke-linejoin="miter" stroke-miterlimit="10" stroke-dasharray="" stroke-dashoffset="0" font-family="Sans Serif" font-weight="normal" text-anchor="start" style="mix-blend-mode: normal"><tspan x="0" dy="0">gucci</tspan></text><g fill="#000000" stroke="none" stroke-width="2.08509" stroke-linecap="butt"><path d="M251.44521,330.4173l-4.44495,0.07977l-0.88297,-49.15707l4.44495,-0.07977z"/><path d="M253.01373,329.70566c1.00237,0.47886 1.63174,1.15288 1.64553,1.91118c0.01355,0.7583 -0.59124,1.45439 -1.5758,1.96912c-0.98481,0.51448 -2.3494,0.84785 -3.866,0.87494c-1.51635,0.02734 -2.89223,-0.25661 -3.8946,-0.73547c-1.00262,-0.47911 -1.63199,-1.15313 -1.64553,-1.91143c-0.0138,-0.75805 0.59099,-1.45439 1.5758,-1.96887c0.98456,-0.51473 2.34915,-0.84785 3.86575,-0.87519c1.5166,-0.02709 2.89223,0.25661 3.89485,0.73572z"/></g><g fill="#000000" stroke="none" stroke-width="2.08509" stroke-linecap="butt"><path d="M231.17152,330.32474l-4.42965,-0.37953l4.19787,-48.98549l4.42965,0.37953z"/><path d="M232.54238,329.31309c0.94769,0.57995 1.50406,1.31542 1.43934,2.07096c-0.06472,0.75554 -0.73823,1.38566 -1.77071,1.79579c-1.03272,0.41013 -2.4244,0.60077 -3.93574,0.47108c-1.51108,-0.12944 -2.85009,-0.55386 -3.79777,-1.13381c-0.94769,-0.57995 -1.50431,-1.31517 -1.43934,-2.07096c0.06472,-0.75554 0.73798,-1.38541 1.77071,-1.79579c1.03247,-0.41013 2.42415,-0.60052 3.93549,-0.47108c1.51108,0.12944 2.85009,0.55386 3.79802,1.13381z"/></g></g></g></svg>