<svg version="1.1" xmlns="http://www.w3.org/2000/svg" xmlns:xlink="http://www.w3.org/1999/xlink" width="327.84879" height="299.31951" viewBox="0,0,327.84879,299.31951"><g transform="translate(-128.34478,-51.51186)"><g data-paper-data="{&quot;isPaintingLayer&quot;:true}" fill-rule="nonzero" stroke-linejoin="miter" stroke-miterlimit="10" stroke-dasharray="" stroke-dashoffset="0" style="mix-blend-mode: normal"><path d="M264.18805,80.71954c7.36742,7.15347 7.88648,19.12707 8.50588,29.22489c0.5583,9.12939 1.38697,20.41369 -4.79807,27.04381c-7.59425,7.14937 -20.20013,7.96496 -30.31553,8.06959c-10.33774,0.11342 -22.52938,-0.80251 -30.09728,-8.06959c-6.18952,-6.49054 -5.54826,-17.89685 -5.01612,-27.04381c0.53214,-9.25608 0.80251,-20.57962 7.1972,-27.4801c7.02697,-6.52548 18.51196,-7.17104 27.9162,-7.63349c9.06848,-0.45367 20.35708,-0.57567 26.60771,5.8887z" fill="#ffff00" stroke="#000000" stroke-width="6.70344" stroke-linecap="round"/><path d="M291.47372,347.47965h-52.99736v-95.5262h52.99736z" fill="#003fff" stroke="#000000" stroke-width="6.70344" stroke-linecap="butt"/><path d="M370.4826,211.05234l-34.58309,40.15882l-72.38509,-62.33501l34.58309,-40.15881z" fill="#cab900" stroke="#000000" stroke-width="6.70344" stroke-linecap="butt"/><path d="M237.98619,347.47965h-52.99736v-95.5262h52.99736z" fill="#003fff" stroke="#000000" stroke-width="6.70344" stroke-linecap="butt"/><path d="M291.42863,250.8999h-106.43102v-106.43102h106.43102z" fill="#cab900" stroke="#000000" stroke-width="6.70344" stroke-linecap="butt"/><path d="M184.69386,239.91894h-52.99736v-95.5262h52.99736z" fill="#cab900" stroke="#000000" stroke-width="6.70344" stroke-linecap="butt"/><path d="M246.00131,90.42343c0.92471,0.9292 1.50038,2.21153 1.50038,3.62485c0,1.41313 -0.57567,2.69565 -1.50038,3.62466c-0.9292,0.92471 -2.21153,1.50058 -3.62485,1.50058c-1.41332,0 -2.69565,-0.57587 -3.62466,-1.50058c-0.9249,-0.929 -1.50058,-2.21153 -1.50058,-3.62466c0,-1.41332 0.57567,-2.69565 1.50058,-3.62485c0.929,-0.92471 2.21134,-1.50058 3.62466,-1.50058c1.41332,0 2.69565,0.57587 3.62485,1.50058z" fill="#000000" stroke="none" stroke-width="2.23448" stroke-linecap="butt"/><path d="M227.16355,91.00906c0.92471,0.9292 1.50038,2.21153 1.50038,3.62485c0,1.41313 -0.57567,2.69565 -1.50038,3.62466c-0.9292,0.92471 -2.21153,1.50058 -3.62485,1.50058c-1.41332,0 -2.69565,-0.57587 -3.62466,-1.50058c-0.9249,-0.929 -1.50058,-2.21153 -1.50058,-3.62466c0,-1.41332 0.57567,-2.69565 1.50058,-3.62485c0.929,-0.92471 2.21134,-1.50058 3.62466,-1.50058c1.41332,0 2.69565,0.57587 3.62485,1.50058z" fill="#000000" stroke="none" stroke-width="2.23448" stroke-linecap="butt"/><path d="M246.63262,126.32586c0,0 -5.56153,3.70333 -9.05111,3.92567c-3.33672,0.20068 -10.14135,-3.27133 -10.14135,-3.27133" fill="none" stroke="#000000" stroke-width="4.46896" stroke-linecap="round"/><g><g fill="#000000" stroke="none" stroke-width="2.08509" stroke-linecap="butt"><path d="M244.13355,186.67483l-3.45912,0.06208l-0.68714,-38.25472l3.45912,-0.06208z"/><path d="M245.35419,186.12102c0.78006,0.37266 1.26984,0.89719 1.28058,1.4873c0.01054,0.59012 -0.46011,1.13183 -1.22631,1.5324c-0.76639,0.40038 -1.82834,0.65981 -3.00858,0.68089c-1.18004,0.02128 -2.25077,-0.1997 -3.03083,-0.57236c-0.78025,-0.37285 -1.27004,-0.89738 -1.28058,-1.4875c-0.01074,-0.58992 0.45991,-1.13183 1.22631,-1.5322c0.7662,-0.40057 1.82814,-0.65981 3.00838,-0.68109c1.18024,-0.02108 2.25077,0.1997 3.03103,0.57255z"/></g><g fill="#000000" stroke="none" stroke-width="2.08509" stroke-linecap="butt"><path d="M228.35628,186.6028l-3.44721,-0.29535l3.26684,-38.12119l3.44721,0.29535z"/><path d="M229.42311,185.81552c0.7375,0.45133 1.17048,1.02368 1.12011,1.61165c-0.05036,0.58797 -0.5745,1.07834 -1.37799,1.39751c-0.80368,0.31917 -1.8867,0.46753 -3.06284,0.3666c-1.17594,-0.10073 -2.21798,-0.43102 -2.95548,-0.88235c-0.7375,-0.45133 -1.17067,-1.02349 -1.12011,-1.61165c0.05036,-0.58797 0.57431,-1.07814 1.37799,-1.39751c0.80348,-0.31917 1.88651,-0.46733 3.06265,-0.3666c1.17594,0.10073 2.21798,0.43102 2.95567,0.88235z"/></g><path d="M265.61543,222.47478c0,0 -3.95632,0.59422 -5.49477,-0.40701c-3.4109,-2.22657 -6.48409,-5.23866 -8.54766,-8.75126c-2.12076,-3.60221 -3.66331,-12.00737 -3.66331,-12.00737" fill="none" stroke="#000000" stroke-width="6.25528" stroke-linecap="round"/><path d="M224.98423,202.57801c0,0 -1.54255,8.40516 -3.66331,12.00737c-2.06356,3.51261 -5.13676,6.5247 -8.54766,8.75126c-1.53845,1.00123 -5.49477,0.40701 -5.49477,0.40701" fill="none" stroke="#000000" stroke-width="6.25528" stroke-linecap="round"/></g><path d="M346.7047,245.71953l18.16822,-109.77641l7.70361,1.27496l-18.16822,109.77641z" fill="#aac94f" stroke="#000000" stroke-width="6.70344" stroke-linecap="butt"/><path d="M435.49381,151.83762c-27.57046,-2.4829 -137.05778,-11.26628 -137.05778,-11.26628l15.61829,-51.3502c0,0 107.43862,9.67555 136.73904,12.31424c8.30703,0.7481 2.01867,6.85594 -0.62869,16.19217c-10.80168,38.0934 -9.26571,34.59683 -14.67086,34.11006z" fill="#aac94f" stroke="#000000" stroke-width="2.5" stroke-linecap="butt"/><path d="M286.91372,98.6362c0,5.4109 -5.55383,8.89033 -11.62658,2.14462c-2.25583,-2.50581 -1.44717,-18.1829 -4.96511,-18.77201c-12.48572,-2.09082 -34.08866,-3.86966 -47.8276,-3.86966c-6.71332,0 -11.39387,0.81439 -15.46392,3.36522c-2.69234,1.68737 -5.11755,5.41341 -7.6873,5.58102c-2.13769,0.13943 -2.91136,18.83912 -5.22049,17.52617c-3.65203,-2.07653 -7.59844,1.30006 -8.83523,-2.99465c-1.55377,-5.39539 0.11705,-18.69055 0.11705,-22.5017c0,-14.55455 22.72361,-26.35335 50.7546,-26.35335c13.83842,0 32.23962,-0.17505 41.39543,9.30598c9.39012,9.72365 9.35917,29.19915 9.35917,36.56837z" fill="#fff618" stroke="#000000" stroke-width="2.5" stroke-linecap="butt"/></g></g></svg>